<svg width="16" height="25" viewBox="0 0 16 25" fill="none" xmlns="http://www.w3.org/2000/svg">
<path fill-rule="evenodd" clip-rule="evenodd" d="M7.99992 0.848633L6.10028 3.33774L3.65389 1.79793L2.98048 4.39087L0.141113 3.79488L2.72379 8.01077C4.13176 6.77525 5.97735 6.02612 7.99746 6.02551V6.02555H8.00241V6.02551C10.0225 6.02612 11.8681 6.77526 13.276 8.01078L15.8587 3.79488L13.0194 4.39087L12.3459 1.79793L9.89955 3.33774L8.00241 0.851897V0.851862L8.0019 0.851233L7.99992 0.848633ZM7.99994 8.00585C4.67541 8.00585 1.98017 10.699 1.98017 14.0214C1.98017 15.4591 2.4854 16.7777 3.32494 17.8107L1.022 24.8483H14.9779L12.6749 17.8107C13.5145 16.7777 14.0197 15.4591 14.0197 14.0214C14.0197 10.699 11.3245 8.00585 7.99994 8.00585ZM11.1846 14.0214C11.1846 12.264 9.75886 10.8392 7.99995 10.8392H7.99993C6.24102 10.8392 4.81532 12.264 4.81532 14.0214C4.81532 15.2394 5.50003 16.2978 6.50652 16.8328L6.60989 16.8877L4.93205 22.0151H11.0678L9.38999 16.8877L9.49336 16.8328C10.4998 16.2978 11.1846 15.2394 11.1846 14.0214Z" fill="white"/>
</svg>
